<?xml version="1.0" encoding="UTF-8" standalone="no"?>
<!-- Created with Inkscape (http://www.inkscape.org/) -->

<svg
   xmlns:dc="http://purl.org/dc/elements/1.1/"
   xmlns:cc="http://creativecommons.org/ns#"
   xmlns:rdf="http://www.w3.org/1999/02/22-rdf-syntax-ns#"
   xmlns:svg="http://www.w3.org/2000/svg"
   xmlns="http://www.w3.org/2000/svg"
   xmlns:sodipodi="http://sodipodi.sourceforge.net/DTD/sodipodi-0.dtd"
   xmlns:inkscape="http://www.inkscape.org/namespaces/inkscape"
   width="800"
   height="800"
   viewBox="0 0 211.66666 211.66667"
   version="1.1"
   id="svg8"
   sodipodi:docname="icon.svg"
   inkscape:version="0.92.3 (unknown)"
   inkscape:export-filename="/home/im5had0w/logo.png"
   inkscape:export-xdpi="96"
   inkscape:export-ydpi="96">
  <defs
     id="defs2" />
  <sodipodi:namedview
     id="base"
     pagecolor="#ffffff"
     bordercolor="#666666"
     borderopacity="1.0"
     inkscape:pageopacity="0.0"
     inkscape:pageshadow="2"
     inkscape:zoom="0.70710678"
     inkscape:cx="-1.786759"
     inkscape:cy="640.91174"
     inkscape:document-units="px"
     inkscape:current-layer="layer2"
     showgrid="false"
     inkscape:pagecheckerboard="true"
     units="px"
     width="1920px"
     inkscape:window-width="1920"
     inkscape:window-height="1055"
     inkscape:window-x="1920"
     inkscape:window-y="0"
     inkscape:window-maximized="1"
     showguides="true"
     inkscape:guide-bbox="true"
     inkscape:snap-text-baseline="false">
    <inkscape:grid
       type="xygrid"
       id="grid4518" />
    <sodipodi:guide
       position="53.694446,50.654258"
       orientation="0,1"
       id="guide1058"
       inkscape:locked="false" />
    <sodipodi:guide
       position="44.846872,63.731517"
       orientation="0,1"
       id="guide1083"
       inkscape:locked="false" />
    <sodipodi:guide
       position="35.080001,183.4999"
       orientation="0,1"
       id="guide1112"
       inkscape:locked="false" />
  </sodipodi:namedview>
  <metadata
     id="metadata5">
    <rdf:RDF>
      <cc:Work
         rdf:about="">
        <dc:format>image/svg+xml</dc:format>
        <dc:type
           rdf:resource="http://purl.org/dc/dcmitype/StillImage" />
        <dc:title />
      </cc:Work>
    </rdf:RDF>
  </metadata>
  <g
     inkscape:label="Layer 1"
     inkscape:groupmode="layer"
     id="layer1"
     transform="translate(0,-85.333325)"
     style="display:none">
    <path
       style="fill:#ffffff;fill-opacity:1;stroke:none;stroke-width:0.80603445;stroke-miterlimit:4;stroke-dasharray:none;stroke-opacity:1"
       d="m 112.22527,188.40384 c 0,19.58793 -5.7511,29.51297 -17.289871,32.73114 -4.856177,1.35439 -9.716513,2.71334 -9.716513,2.71334 v 1.91766 l -7.249686,-0.005 -7.63e-4,71.35445 -2.47816,0.002 h -2.478926 l 3.85e-4,-71.3533 -7.437126,-0.003 -3.4e-5,-1.91281 c 0,0 -4.874841,-1.43682 -9.679766,-2.71017 -12.247564,-3.24573 -16.46933,-13.16149 -16.419068,-32.74942 l 16.425298,0.005 -0.0083,-28.24907 h 9.681838 v 28.2439 l 19.644334,2.7e-4 0.0082,-28.239 h 9.728611 l 2.4e-5,28.24419 z"
       id="path816"
       inkscape:connector-curvature="0"
       sodipodi:nodetypes="cscccscccccscccccccccc" />
    <path
       style="fill:#ffffff;fill-opacity:1;stroke:none;stroke-width:0.80603445;stroke-miterlimit:4;stroke-dasharray:none;stroke-opacity:1"
       d="m 39.475708,109.46107 c 0,-19.587933 4.851908,-29.995813 16.390678,-33.213983 4.85618,-1.35438 9.71652,-2.71333 9.71652,-2.71333 v -1.917669 l 7.24968,0.005 8e-4,-71.35446198 2.47816,-0.002 h 2.47892 l -2.6e-4,71.35330198 7.43713,0.003 3e-5,1.912819 c 0,0 4.87484,1.43682 9.67977,2.71016 12.247414,3.24575 17.360124,13.62923 17.309864,33.217163 z"
       id="path816-3"
       inkscape:connector-curvature="0"
       sodipodi:nodetypes="cscccscccccscc" />
  </g>
  <g
     inkscape:groupmode="layer"
     id="layer3"
     inkscape:label="Layer 3"
     sodipodi:insensitive="true">
    <rect
       style="fill:#185774;fill-opacity:1;stroke:none;stroke-width:1.00251567;stroke-miterlimit:4;stroke-dasharray:none;stroke-opacity:1"
       id="rect939"
       width="211.67549"
       height="211.66049"
       x="-2.0673877e-08"
       y="0.00033112831" />
  </g>
  <g
     inkscape:groupmode="layer"
     id="layer2"
     inkscape:label="Layer 2">
    <g
       id="g1050"
       transform="translate(0.26458333,0.79374997)">
      <path
         sodipodi:nodetypes="cscccscccccscccccccccc"
         inkscape:connector-curvature="0"
         id="path816-6"
         d="m 142.73752,145.1256 c 0,19.58793 -5.7511,29.51298 -17.28987,32.73114 -4.85617,1.35439 -9.71651,2.71334 -9.71651,2.71334 v 1.91766 l -7.24969,-0.005 -7.9e-4,71.35445 -2.47816,0.003 h -2.47893 l 2.7e-4,-71.35331 -7.437162,-0.003 -3e-5,-1.91281 c 0,0 -4.87484,-1.43682 -9.67977,-2.71017 -12.24741,-3.24672 -16.46918,-13.16247 -16.41891,-32.75041 l 16.42529,0.005 -0.008,-28.24907 h 9.68184 v 28.2439 l 19.644372,2.7e-4 0.008,-28.239 h 9.72861 l 2e-5,28.24419 z"
         style="display:inline;fill:#ffffff;fill-opacity:1;stroke:none;stroke-width:0.80603445;stroke-miterlimit:4;stroke-dasharray:none;stroke-opacity:1" />
      <path
         sodipodi:nodetypes="cscccscccccscc"
         inkscape:connector-curvature="0"
         id="path816-3-7"
         d="m 69.987928,66.182832 c 0,-19.58792 4.85191,-29.9958 16.39068,-33.21397 4.85618,-1.35438 9.71652,-2.71334 9.71652,-2.71334 v -1.91766 l 7.249712,0.005 8e-4,-71.354465 2.47816,-0.002 h 2.47892 l -2.6e-4,71.353305 7.43713,0.003 3e-5,1.91281 c 0,0 4.87484,1.43683 9.67977,2.71017 12.24742,3.24574 17.36012,13.62923 17.30987,33.21715 z"
         style="display:inline;fill:#ffffff;fill-opacity:1;stroke:none;stroke-width:0.80603445;stroke-miterlimit:4;stroke-dasharray:none;stroke-opacity:1" />
      <g
         transform="matrix(3.5305403,0,0,3.5305403,96.062598,152.246)"
         id="g1005"
         style="fill-rule:evenodd">
        <g
           transform="matrix(1.0755,0,0,1.0755,-3.5103,-1.6684)"
           id="g993">
          <path
             style="fill:#185774;fill-opacity:1"
             inkscape:connector-curvature="0"
             d="m 5.8465,1.9131 c 0.57932,0 1.1068,0.222 1.5022,0.58547 -0.1938,-0.0052 -0.3872,0.11 -0.3952,0.3738 -0.0163,0.5333 0.6377,0.6469 0.2853,1.7196 L 6.9473,5.47927 6.1534,3.14067 c -0.0123,-0.0362 0.002,-0.0568 0.0465,-0.0568 h 0.22445 c 0.011665,0 0.021201,-0.00996 0.021201,-0.022158 v -0.13294 c 0,-0.012193 -0.00956,-0.022657 -0.021201,-0.022153 -0.42505,0.018587 -0.8476,0.018713 -1.2676,0 -0.0117,-5e-4 -0.0212,0.01 -0.0212,0.0222 v 0.13294 c 0,0.012185 0.00954,0.022158 0.021201,0.022158 h 0.22568 c 0.050201,0 0.064256,0.016728 0.076091,0.049087 l 0.3262,0.8921 -0.4907,1.4817 -0.8066,-2.3758 c -0.01,-0.0298 0.0021,-0.0471 0.0308,-0.0471 h 0.25715 c 0.011661,0 0.021197,-0.00996 0.021197,-0.022158 v -0.13294 c 0,-0.012193 -0.00957,-0.022764 -0.021197,-0.022153 -0.2698,0.014331 -0.54063,0.017213 -0.79291,0.019803 0.39589,-0.60984 1.0828,-1.0134 1.8639,-1.0134 l -2.9e-6,-6.2e-6 z m 1.9532,1.1633 c 0.17065,0.31441 0.26755,0.67464 0.26755,1.0574 0,0.84005 -0.46675,1.5712 -1.1549,1.9486 l 0.6926,-1.9617 c 0.1073,-0.3036 0.2069,-0.7139 0.1947,-1.0443 h -4e-6 z M 6.59,6.2268 C 6.3575,6.3095 6.1073,6.3546 5.8465,6.3546 5.6218,6.3546 5.405,6.3211 5.2006,6.2591 L 5.88475,4.2985 6.58999,6.2269 v -10e-8 z M 4.8962,6.1414 C 4.14519,5.78523 3.6257,5.0201 3.6257,4.1339 c 0,-0.32852 0.071465,-0.64038 0.19955,-0.92096 l 1.071,2.9285 3e-6,-3e-6 z M 5.84643,1.7047 c 1.3413,0 2.4291,1.0878 2.4291,2.4291 0,1.3413 -1.0878,2.4291 -2.4291,2.4291 -1.3413,0 -2.4291,-1.0878 -2.4291,-2.4291 0,-1.3413 1.0878,-2.4291 2.4291,-2.4291 z m 0,-0.15354 c 1.4261,0 2.5827,1.1566 2.5827,2.5827 0,1.4261 -1.1566,2.5827 -2.5827,2.5827 -1.4261,0 -2.5827,-1.1566 -2.5827,-2.5827 0,-1.4261 1.1566,-2.5827 2.5827,-2.5827 z"
             id="path991" />
        </g>
      </g>
      <g
         aria-label="CGA"
         transform="scale(0.26458333)"
         style="font-style:normal;font-variant:normal;font-weight:normal;font-stretch:normal;font-size:40px;line-height:125%;font-family:'TeX Gyre Bonum';-inkscape-font-specification:'TeX Gyre Bonum';letter-spacing:0px;word-spacing:0px;fill:#185774;fill-opacity:1;stroke:none;stroke-width:1px;stroke-linecap:butt;stroke-linejoin:miter;stroke-opacity:1"
         id="flowRoot1007">
        <path
           d="m 318.78122,196.1943 q 0,-13.73866 7.76533,-22.44266 7.85067,-8.78934 24.064,-8.78934 10.92267,0 18.09067,3.328 v 13.312 h -2.56 q -2.21867,-13.65333 -16.384,-13.65333 -5.71733,0 -9.984,2.38933 -4.26667,2.304 -6.74133,6.4 -2.38934,4.096 -3.584,8.87467 -1.10934,4.77867 -1.10934,10.32533 0,3.49867 0.512,6.912 0.512,3.41334 1.96267,7.25334 1.45067,3.84 3.66933,6.74133 2.304,2.90133 6.144,4.864 3.92534,1.87733 8.96,1.87733 7.85067,0 11.86134,-3.92533 4.096,-4.01067 6.05866,-11.43467 h 2.56 l -1.19466,14.25067 q -3.15734,1.70667 -8.53334,2.90133 -5.29066,1.19467 -10.24,1.19467 -15.95733,0 -23.21066,-7.25333 -8.10667,-8.10667 -8.10667,-23.12534 z"
           style="font-style:normal;font-variant:normal;font-weight:normal;font-stretch:normal;font-size:85.33333588px;line-height:100%;font-family:Heuristica;-inkscape-font-specification:Heuristica;text-align:center;text-anchor:middle"
           id="path870" />
        <path
           d="m 376.61455,196.87697 q 0,-12.97067 6.4,-21.41867 8.10667,-10.496 26.19734,-10.496 11.17867,0 18.34667,3.49867 v 13.39733 h -2.56 q -2.56,-13.90933 -16.64,-13.90933 -4.864,0 -8.78934,1.62133 -3.84,1.536 -6.31466,4.18134 -2.47467,2.64533 -4.096,6.31466 -1.62134,3.584 -2.304,7.424 -0.68267,3.75467 -0.68267,8.02134 0,3.584 0.512,7.08266 0.512,3.41334 2.048,7.424 1.536,3.92534 4.01067,6.82667 2.47466,2.90133 6.74133,4.864 4.352,1.87733 9.984,1.87733 4.18133,0 7.50933,-1.28 1.45067,-0.59733 2.13334,-1.536 0.768,-0.93866 0.768,-3.072 v -11.52 q 0,-2.304 -0.512,-3.15733 -0.512,-0.85333 -2.304,-1.28 -1.70667,-0.512 -6.22934,-0.85333 v -2.47467 h 23.552 v 2.47467 q -4.18133,0.42666 -5.12,1.28 -0.93866,0.768 -0.93866,4.01066 v 16.81067 q -11.264,3.584 -19.62667,3.584 -13.65333,0 -21.504,-5.46133 -4.77867,-3.41334 -7.68,-9.81334 -2.90134,-6.4 -2.90134,-14.42133 z"
           style="font-style:normal;font-variant:normal;font-weight:normal;font-stretch:normal;font-size:85.33333588px;line-height:100%;font-family:Heuristica;-inkscape-font-specification:Heuristica;text-align:center;text-anchor:middle"
           id="path872" />
        <path
           d="m 432.71055,225.29297 v -2.47467 q 3.92534,-0.17066 5.20534,-1.19466 1.36533,-1.10934 2.73066,-4.69334 2.13334,-5.46133 9.216,-25.42933 l 8.96,-25.25867 h 6.31467 l 18.09067,51.456 q 1.10933,3.24267 2.304,4.01067 1.28,0.768 5.12,1.10933 v 2.47467 h -21.84534 v -2.47467 l 3.84,-0.34133 q 2.048,-0.17067 2.47467,-0.93867 0.512,-0.85333 -0.17067,-2.73066 l -5.71733,-16.29867 h -19.11467 q -4.26666,13.312 -5.20533,16.46933 -0.59733,1.70667 -0.17067,2.47467 0.42667,0.768 2.304,0.93867 l 4.43734,0.42666 v 2.47467 z m 18.51734,-26.02667 h 16.98133 l -8.448,-24.40533 h -0.256 q -7.59467,22.35733 -8.27733,24.40533 z"
           style="font-style:normal;font-variant:normal;font-weight:normal;font-stretch:normal;font-size:85.33333588px;line-height:100%;font-family:Heuristica;-inkscape-font-specification:Heuristica;text-align:center;text-anchor:middle"
           id="path874" />
      </g>
      <g
         aria-label="Plugin
Helper"
         transform="matrix(0.26458333,0,0,0.26458333,-6.35,2.9104167)"
         style="font-style:normal;font-weight:normal;font-size:40px;line-height:125%;font-family:sans-serif;text-align:center;letter-spacing:0px;word-spacing:0px;text-anchor:middle;fill:#ffffff;fill-opacity:1;stroke:none;stroke-width:1px;stroke-linecap:butt;stroke-linejoin:miter;stroke-opacity:1"
         id="flowRoot1015">
        <path
           d="m 281.96032,318.14063 0.816,-3.44533 4.08,-0.36267 q 1.81333,-0.0907 2.53866,-1.17867 0.816,-1.17866 1.45067,-3.89867 l 10.15467,-44.97066 q 0.63467,-2.448 0.36267,-3.62667 -0.272,-1.26933 -2.08534,-1.36 l -4.624,-0.45333 0.90667,-3.44534 h 22.848 q 12.69333,0 18.58667,3.44534 7.43466,4.352 7.43466,13.96266 0,10.064 -7.888,15.86667 -7.43466,5.53067 -22.576,5.53067 h -5.712 l -3.44533,15.05066 q -0.72533,2.26667 -0.36267,3.62667 0.36267,1.26934 2.26667,1.36 l 5.89333,0.45334 -0.72533,3.44533 z m 27.92533,-31.09867 q -0.18133,0.90667 -0.18133,1.632 0.0907,0.63467 1.088,0.99733 0.99733,0.36267 2.992,0.36267 7.616,0 11.87733,-6.16533 4.352,-6.16534 4.352,-13.872 0,-10.42667 -9.61066,-10.42667 -2.81067,0 -3.71734,0.72533 -0.90666,0.63467 -1.45066,2.72 z"
           style="font-style:italic;font-variant:normal;font-weight:bold;font-stretch:normal;font-size:90.66667175px;line-height:100%;font-family:Heuristica;-inkscape-font-specification:'Heuristica Bold Italic';letter-spacing:0px;fill:#ffffff;fill-opacity:1"
           id="path845" />
        <path
           d="m 345.84632,307.71396 11.33333,-46.96533 q 0.90667,-3.62667 -1.45066,-3.89867 l -5.25867,-0.63467 0.63467,-2.90133 20.58133,-2.448 0.544,0.45333 -13.69067,56.39467 q -0.90666,4.26134 0.99734,4.26134 1.45066,0 3.71733,-2.62934 2.26667,-2.72 4.17067,-6.256 l 2.81067,1.632 q -7.16267,14.50667 -17.86134,14.50667 -9.33867,0 -6.528,-11.51467 z"
           style="font-style:italic;font-variant:normal;font-weight:bold;font-stretch:normal;font-size:90.66667175px;line-height:100%;font-family:Heuristica;-inkscape-font-specification:'Heuristica Bold Italic';letter-spacing:0px;fill:#ffffff;fill-opacity:1"
           id="path847" />
        <path
           d="m 375.87257,277.97529 0.72533,-2.992 20.944,-2.35733 0.45334,0.45333 -8.52267,33.456 q -1.45067,5.44001 1.72267,5.44001 2.992,0 7.52533,-6.43734 4.624,-6.528 7.43467,-13.23733 2.26666,-5.07734 6.07466,-18.58667 l 12.87467,-1.088 -9.15733,35.088 q -1.26934,4.26134 1.088,4.26134 2.62933,0 7.79733,-8.88534 l 2.62933,1.632 q -7.16266,14.50667 -18.04266,14.50667 -3.71734,0 -5.34934,-2.62933 -1.632,-2.62934 -0.45333,-7.16267 l 2.81067,-10.336 h -0.36267 q -10.97067,20.128 -23.48267,20.128 -9.52,0 -6.07467,-13.14667 l 6.07467,-23.392 q 1.088,-3.89867 -1.36,-4.17067 z"
           style="font-style:italic;font-variant:normal;font-weight:bold;font-stretch:normal;font-size:90.66667175px;line-height:100%;font-family:Heuristica;-inkscape-font-specification:'Heuristica Bold Italic';letter-spacing:0px;fill:#ffffff;fill-opacity:1"
           id="path849" />
        <path
           d="m 425.44599,327.66063 q 0,-4.98667 4.26134,-7.70667 4.352,-2.72 10.064,-3.44533 v -0.18133 q -3.89867,-1.17867 -6.07467,-3.08267 -2.176,-1.99467 -2.176,-4.17067 0,-3.89867 6.70934,-6.70933 1.088,-0.45334 3.62666,-1.36 v -0.18134 q -3.35466,-1.088 -5.984,-3.89866 -2.62933,-2.81067 -2.72,-7.16267 -0.0907,-2.90133 0.99734,-5.62133 1.088,-2.81067 3.536,-5.44 2.448,-2.72 7.072,-4.352 4.71466,-1.72267 10.97066,-1.72267 7.344,0 12.60267,2.72 l 13.056,-3.62667 0.544,0.816 -2.81067,6.8 -6.89066,1.088 q 1.54133,2.35734 1.54133,5.80267 0,7.344 -5.984,11.60533 -5.984,4.17067 -15.68533,4.26134 -3.17334,0 -5.44,-0.18134 -2.90134,0.99734 -2.90134,2.90134 0.0907,1.45066 2.176,2.35733 2.08534,0.816 8.88534,2.448 16.32,3.808 16.32,14.86934 0,7.70666 -6.43734,11.60533 -6.34666,3.98933 -17.58933,3.98933 -9.70133,0 -15.59467,-3.44533 -5.89333,-3.44533 -6.07467,-8.976 z m 12.42134,-1.088 q 0.0907,4.44267 3.35467,6.89067 3.35466,2.448 8.06933,2.448 4.08,0 7.25333,-2.176 3.17334,-2.08534 3.08267,-6.07467 -0.0907,-2.448 -1.54133,-4.352 -1.45067,-1.81333 -4.17067,-2.81067 -2.62933,-0.99733 -4.53333,-1.45066 -1.904,-0.45334 -4.71467,-0.90667 -2.26667,0.36267 -4.53333,2.448 -2.26667,2.176 -2.26667,5.984 z m 9.06667,-34.816 q 0,2.81066 1.26933,4.53333 1.36,1.632 3.98933,1.632 3.89867,0 6.43734,-4.352 2.81066,-4.896 2.81066,-11.24267 -0.0907,-2.992 -1.72266,-4.26133 -1.54134,-1.26933 -3.62667,-1.26933 -4.08,0 -6.61867,4.80533 -2.53866,4.80533 -2.53866,10.15467 z"
           style="font-style:italic;font-variant:normal;font-weight:bold;font-stretch:normal;font-size:90.66667175px;line-height:100%;font-family:Heuristica;-inkscape-font-specification:'Heuristica Bold Italic';letter-spacing:0px;fill:#ffffff;fill-opacity:1"
           id="path851" />
        <path
           d="m 480.61525,308.43929 6.98133,-25.84 q 0.90667,-3.536 -1.54133,-3.808 l -5.25867,-0.544 0.72533,-2.992 20.85334,-2.62933 0.544,0.544 -9.33867,34.544 q -1.17867,4.26134 0.99733,4.26134 1.45067,0 3.62667,-2.62934 2.176,-2.72 4.17067,-6.256 l 2.72,1.54133 q -7.25334,14.59734 -18.13334,14.59734 -9.248,0 -6.34666,-10.78934 z m 10.608,-47.6 q 0,-3.17333 1.99466,-5.53066 2.08534,-2.448 5.89334,-2.448 3.17333,0 5.168,1.72266 2.08533,1.72267 2.08533,4.896 0,3.71734 -2.176,5.89334 -2.08533,2.08533 -5.62133,2.08533 -3.264,0 -5.34934,-1.81333 -1.99466,-1.81334 -1.99466,-4.80534 z"
           style="font-style:italic;font-variant:normal;font-weight:bold;font-stretch:normal;font-size:90.66667175px;line-height:100%;font-family:Heuristica;-inkscape-font-specification:'Heuristica Bold Italic';letter-spacing:0px;fill:#ffffff;fill-opacity:1"
           id="path853" />
        <path
           d="m 508.88908,319.22863 9.33867,-36.53867 q 1.088,-3.62667 -1.36,-3.89867 l -5.44,-0.544 0.72533,-2.992 21.12533,-2.62933 0.45334,0.45333 -6.16534,19.67467 h 0.544 q 4.71467,-8.79467 10.69867,-14.416 5.984,-5.712 12.512,-5.712 3.62667,0 5.53067,1.81333 1.99466,1.81334 2.08533,4.80534 0.0907,2.90133 -0.816,6.528 l -6.8,21.94133 q -1.26933,4.26134 0.99733,4.26134 1.54134,0 3.71734,-2.62934 2.176,-2.72 4.08,-6.256 l 2.62933,1.632 q -7.072,14.50667 -18.224,14.50667 -4.26133,0 -5.984,-2.81067 -1.632,-2.81066 -0.18133,-7.97867 l 6.89066,-23.21066 q 1.632,-5.34934 -1.81333,-5.34934 -2.992,0 -7.97867,6.61867 -4.896,6.528 -7.25333,12.33067 -3.62667,9.248 -6.528,19.312 z"
           style="font-style:italic;font-variant:normal;font-weight:bold;font-stretch:normal;font-size:90.66667175px;line-height:100%;font-family:Heuristica;-inkscape-font-specification:'Heuristica Bold Italic';letter-spacing:0px;fill:#ffffff;fill-opacity:1"
           id="path855" />
        <path
           d="m 281.87178,408.80732 0.816,-3.44534 4.08,-0.36266 q 1.81333,-0.0907 2.53866,-1.17867 0.816,-1.17867 1.45067,-3.89867 l 10.064,-44.97067 q 0.63467,-2.448 0.36267,-3.62666 -0.272,-1.26934 -2.08534,-1.36 l -4.624,-0.45334 0.90667,-3.44533 h 28.288 l -0.90666,3.44533 -3.98934,0.36267 q -1.81333,0.0907 -2.62933,1.26933 -0.72534,1.088 -1.36,3.808 l -4.17067,18.768 h 23.57334 l 4.17066,-18.768 q 0.63467,-2.448 0.36267,-3.62666 -0.272,-1.26934 -2.08533,-1.36 l -4.624,-0.45334 0.90666,-3.44533 h 28.288 l -0.90666,3.44533 -3.98934,0.36267 q -1.81333,0.0907 -2.62933,1.26933 -0.72533,1.088 -1.36,3.808 l -10.064,44.97067 q -0.63467,2.448 -0.36267,3.71734 0.272,1.17866 2.08534,1.36 l 4.53333,0.36266 -0.816,3.44534 h -28.288 l 0.816,-3.44534 4.08,-0.36266 q 1.81333,-0.0907 2.53867,-1.17867 0.816,-1.17867 1.45066,-3.89867 l 4.896,-21.85067 h -23.57333 l -4.896,21.85067 q -0.63467,2.448 -0.36267,3.71734 0.272,1.17866 2.08533,1.36 l 4.53334,0.36266 -0.816,3.44534 z"
           style="font-style:italic;font-variant:normal;font-weight:bold;font-stretch:normal;font-size:90.66667175px;line-height:100%;font-family:Heuristica;-inkscape-font-specification:'Heuristica Bold Italic';fill:#ffffff;fill-opacity:1"
           id="path857" />
        <path
           d="m 355.16586,394.20998 q 0,-11.33333 7.344,-20.58133 8.25067,-10.336 20.85334,-10.336 5.89333,0 9.61066,2.90133 3.808,2.90133 3.808,7.616 0,5.25867 -4.17066,9.06667 -6.256,5.53066 -23.936,8.976 v 2.176 q 0,4.17067 1.632,7.072 1.72266,2.81067 5.44,2.81067 3.89866,0 7.25333,-2.72 3.35467,-2.72 7.25333,-8.34134 l 2.72,2.176 q -8.25066,14.86934 -23.02933,14.86934 -2.72,0 -5.168,-0.72534 -2.35733,-0.72533 -4.624,-2.35733 -2.26667,-1.72267 -3.62667,-4.896 -1.36,-3.264 -1.36,-7.70667 z m 13.872,-6.43733 q 7.616,-1.54134 11.87734,-6.07467 4.26133,-4.624 4.26133,-10.24533 0,-3.98934 -3.35467,-3.98934 -3.98933,0 -7.888,6.256 -3.89866,6.256 -4.896,14.05334 z"
           style="font-style:italic;font-variant:normal;font-weight:bold;font-stretch:normal;font-size:90.66667175px;line-height:100%;font-family:Heuristica;-inkscape-font-specification:'Heuristica Bold Italic';fill:#ffffff;fill-opacity:1"
           id="path859" />
        <path
           d="m 401.18486,398.38065 11.33334,-46.96534 q 0.90667,-3.62666 -1.45067,-3.89866 l -5.25866,-0.63467 0.63466,-2.90133 20.58134,-2.448 0.544,0.45333 -13.69067,56.39467 q -0.90667,4.26133 0.99733,4.26133 1.45067,0 3.71734,-2.62933 2.26666,-2.72 4.17066,-6.256 l 2.81067,1.632 q -7.16267,14.50667 -17.86133,14.50667 -9.33867,0 -6.52801,-11.51467 z"
           style="font-style:italic;font-variant:normal;font-weight:bold;font-stretch:normal;font-size:90.66667175px;line-height:100%;font-family:Heuristica;-inkscape-font-specification:'Heuristica Bold Italic';fill:#ffffff;fill-opacity:1"
           id="path861" />
        <path
           d="m 424.50179,430.74865 12.512,-57.392 q 0.816,-3.62667 -1.36,-3.89867 l -5.34934,-0.544 0.63467,-2.992 20.76267,-2.62933 0.45333,0.45333 -5.168,19.13067 h 0.36267 q 10.51733,-19.584 22.576,-19.584 5.07733,0 7.616,3.08266 2.53867,3.08267 2.53867,8.52267 0,2.72 -0.816,6.70933 -0.72534,3.98934 -2.81067,9.06667 -2.08533,4.98667 -5.168,9.248 -2.992,4.17067 -8.06933,7.072 -4.98667,2.90134 -11.15201,2.90134 -6.528,0 -9.70133,-1.904 l -5.168,21.66933 z m 18.85866,-27.744 q 2.72,2.72 6.8,2.72 3.62667,0 6.8,-3.62667 3.264,-3.62666 5.07734,-8.704 1.904,-5.07733 2.992,-9.88267 1.088,-4.896 1.088,-7.97866 0,-4.98667 -3.35467,-4.98667 -2.53867,0 -5.89333,3.44533 -3.264,3.44534 -6.43734,9.15734 -4.44266,8.06933 -7.072,19.856 z"
           style="font-style:italic;font-variant:normal;font-weight:bold;font-stretch:normal;font-size:90.66667175px;line-height:100%;font-family:Heuristica;-inkscape-font-specification:'Heuristica Bold Italic';fill:#ffffff;fill-opacity:1"
           id="path863" />
        <path
           d="m 482.84295,394.20998 q 0,-11.33333 7.344,-20.58133 8.25067,-10.336 20.85333,-10.336 5.89334,0 9.61067,2.90133 3.808,2.90133 3.808,7.616 0,5.25867 -4.17067,9.06667 -6.256,5.53066 -23.936,8.976 v 2.176 q 0,4.17067 1.632,7.072 1.72267,2.81067 5.44,2.81067 3.89867,0 7.25334,-2.72 3.35466,-2.72 7.25333,-8.34134 l 2.72,2.176 q -8.25067,14.86934 -23.02933,14.86934 -2.72,0 -5.168,-0.72534 -2.35734,-0.72533 -4.624,-2.35733 -2.26667,-1.72267 -3.62667,-4.896 -1.36,-3.264 -1.36,-7.70667 z m 13.872,-6.43733 q 7.616,-1.54134 11.87733,-6.07467 4.26134,-4.624 4.26134,-10.24533 0,-3.98934 -3.35467,-3.98934 -3.98933,0 -7.888,6.256 -3.89867,6.256 -4.896,14.05334 z"
           style="font-style:italic;font-variant:normal;font-weight:bold;font-stretch:normal;font-size:90.66667175px;line-height:0%;font-family:Heuristica;-inkscape-font-specification:'Heuristica Bold Italic';letter-spacing:0px;fill:#ffffff;fill-opacity:1"
           id="path865" />
        <path
           d="m 527.22996,409.89532 8.432,-36.53867 q 0.816,-3.62667 -1.36,-3.89867 l -5.34933,-0.544 0.63466,-2.992 19.312,-2.62933 0.45334,0.45333 -3.35467,13.14667 h 0.45333 q 3.536,-6.34667 7.52534,-9.97334 3.98933,-3.62666 8.06933,-3.62666 5.62133,0 5.62133,5.34933 0,2.81067 -1.81333,5.34933 -1.72267,2.448 -4.352,2.448 -1.904,0 -4.352,-1.72266 -2.08533,-1.45067 -3.44533,-1.45067 -4.17067,0 -8.79467,16.22933 -0.90667,3.17334 -2.62933,9.88267 -1.632,6.70934 -2.35734,9.42934 z"
           style="font-style:italic;font-variant:normal;font-weight:bold;font-stretch:normal;font-size:90.66667175px;line-height:0%;font-family:Heuristica;-inkscape-font-specification:'Heuristica Bold Italic';letter-spacing:0px;fill:#ffffff;fill-opacity:1"
           id="path867" />
      </g>
    </g>
    <flowRoot
       xml:space="preserve"
       id="flowRoot1025"
       style="fill:black;stroke:none;stroke-opacity:1;stroke-width:1px;stroke-linejoin:miter;stroke-linecap:butt;fill-opacity:1;font-family:sans-serif;font-style:normal;font-weight:normal;font-size:40px;line-height:0%;letter-spacing:0px;word-spacing:0px;"><flowRegion
         id="flowRegion1027"
         style="line-height:0%;"><rect
           id="rect1029"
           width="132"
           height="78"
           x="-37"
           y="162"
           style="line-height:0%;" /></flowRegion><flowPara
         id="flowPara1031" /></flowRoot>    <path
       style="fill:#ffffff;fill-opacity:1;stroke:none;stroke-width:0.26458332px;stroke-linecap:butt;stroke-linejoin:miter;stroke-opacity:1"
       d="m 70.11458,181.76875 c 0,0 -16.66875,-0.92604 -16.801041,-20.76979 h 8.929687 v -2.77813 L 44.846873,147.93515 28.62291,158.2539 l -0.006,2.75851 h 8.310704 c 0,0 -1.34057,23.41879 33.186985,20.75634 z"
       id="path1056"
       inkscape:connector-curvature="0"
       sodipodi:nodetypes="cccccccccc" />
    <path
       style="fill:#ffffff;fill-opacity:1;stroke:none;stroke-width:0.26458332px;stroke-linecap:butt;stroke-linejoin:miter;stroke-opacity:1"
       d="m 142.68537,181.7822 c 0,0 16.66873,-0.92604 16.80102,-20.76979 h -8.92968 v -2.77813 l 17.39633,-10.28568 16.22395,10.31875 0.006,2.75851 h -8.3107 c 0,0 1.34057,23.41879 -33.18694,20.75634 z"
       id="path1056-6"
       inkscape:connector-curvature="0"
       sodipodi:nodetypes="cccccccccc" />
    <path
       style="fill:#ffffff;fill-opacity:1;stroke:none;stroke-width:0.16397008px;stroke-linecap:butt;stroke-linejoin:miter;stroke-opacity:1"
       d="m 59.956571,58.453979 -8.856914,-13.61627 -4.270855,1.391198 -11.7488,-18.062141 -12.887534,4.198013 22.831918,20.527225 3.262833,-1.062842 17.487221,15.722029 z"
       id="path1095"
       inkscape:connector-curvature="0"
       inkscape:transform-center-y="-1.3096207" />
    <path
       style="fill:#ffffff;fill-opacity:1;stroke:none;stroke-width:0.16397008px;stroke-linecap:butt;stroke-linejoin:miter;stroke-opacity:1"
       d="m 152.36443,58.45398 8.8569,-13.616271 4.27085,1.391198 11.74879,-18.062141 12.88752,4.198013 -22.83189,20.527225 -3.26284,-1.062842 -17.4872,15.722029 z"
       id="path1095-2"
       inkscape:connector-curvature="0"
       inkscape:transform-center-y="-1.3096207" />
  </g>
</svg>
